<mxfile host="app.diagrams.net" agent="agent" version="20.2.8"><diagram name="Student Directory"><mxGraphModel dx="1280" dy="720" page="1" pageScale="1" pageWidth="1920" pageHeight="1080"><root><mxCell id="0"/><mxCell id="1" parent="0"/><mxCell id="title" value="Student Directory" style="shape=rectangle;whiteSpace=wrap;html=1;fontSize=18;fontStyle=1;align=center;verticalAlign=top;" vertex="1"><mxGeometry x="20" y="20" width="1880" height="60" as="geometry"/></mxCell><mxCell id="filters" value="Filters" style="shape=rectangle;whiteSpace=wrap;html=1;rounded=1;" vertex="1"><mxGeometry x="20" y="100" width="1880" height="90" as="geometry"/></mxCell><mxCell id="actions" value="Actions" style="shape=rectangle;whiteSpace=wrap;html=1;fillColor=#f5f5f5;" vertex="1"><mxGeometry x="20" y="200" width="1880" height="60" as="geometry"/></mxCell><mxCell id="table" value="Students Table" style="shape=rectangle;whiteSpace=wrap;html=1;" vertex="1"><mxGeometry x="20" y="270" width="1880" height="790" as="geometry"/></mxCell></root></mxGraphModel></diagram></mxfile>
